<?xml version="1.0" encoding="UTF-8" standalone="no"?>
<!-- Created with Inkscape (http://www.inkscape.org/) -->

<svg
   xmlns:dc="http://purl.org/dc/elements/1.1/"
   xmlns:cc="http://creativecommons.org/ns#"
   xmlns:rdf="http://www.w3.org/1999/02/22-rdf-syntax-ns#"
   xmlns:svg="http://www.w3.org/2000/svg"
   xmlns="http://www.w3.org/2000/svg"
   version="1.1"
   width="36"
   height="36"
   id="svg11686"
   xml:space="preserve"><metadata
     id="metadata11692"><rdf:RDF><cc:Work
         rdf:about=""><dc:format>image/svg+xml</dc:format><dc:type
           rdf:resource="http://purl.org/dc/dcmitype/StillImage" /><dc:title></dc:title></cc:Work></rdf:RDF></metadata><defs
     id="defs11690"><linearGradient
       id="linearGradient12666"><stop
         id="stop12668"
         style="stop-color:#203c38;stop-opacity:1"
         offset="0" /><stop
         id="stop12670"
         style="stop-color:#374542;stop-opacity:0.84033614"
         offset="1" /></linearGradient><clipPath
       id="clipPath11702"><path
         d="m 284.333,253.833 223.332,0 0,104.333 -223.332,0 0,-104.333 z"
         id="path11704" /></clipPath><filter
       color-interpolation-filters="sRGB"
       id="filter3117"><feFlood
         result="flood"
         flood-color="rgb(0,0,0)"
         flood-opacity="0.85"
         id="feFlood3119" /><feComposite
         in2="SourceGraphic"
         operator="in"
         in="flood"
         result="composite1"
         id="feComposite3121" /><feGaussianBlur
         result="blur"
         stdDeviation="0.3"
         id="feGaussianBlur3123" /><feOffset
         result="offset"
         dy="0.2"
         dx="0.2"
         id="feOffset3125" /><feComposite
         in2="offset"
         operator="over"
         in="SourceGraphic"
         result="fbSourceGraphic"
         id="feComposite3127" /><feColorMatrix
         id="feColorMatrix3957"
         values="0 0 0 -1 0 0 0 0 -1 0 0 0 0 -1 0 0 0 0 1 0"
         in="fbSourceGraphic"
         result="fbSourceGraphicAlpha" /><feFlood
         in="fbSourceGraphic"
         result="flood"
         flood-color="rgb(0,0,0)"
         flood-opacity="0.8"
         id="feFlood3959" /><feComposite
         in2="fbSourceGraphic"
         operator="in"
         in="flood"
         result="composite1"
         id="feComposite3961" /><feGaussianBlur
         result="blur"
         stdDeviation="0.2"
         id="feGaussianBlur3963" /><feOffset
         result="offset"
         dy="0.2"
         dx="0.2"
         id="feOffset3965" /><feComposite
         in2="offset"
         operator="over"
         in="fbSourceGraphic"
         result="composite2"
         id="feComposite3967" /></filter></defs><g
     transform="matrix(1.25,0,0,-1.25,0,36)"
     id="g11694"><g
       transform="matrix(0.7235619,0,0,0.7235619,-236.2601,-223.76364)"
       id="g11698"
       style="fill:#44aa00;filter:url(#filter3117)"><g
         clip-path="url(#clipPath11702)"
         id="g11700"
         style="fill:#44aa00"><g
           transform="translate(341.48808,331.47099)"
           id="g11740"
           style="fill:#44aa00"><path
             d="m 276.28125,326.0625 c -72.41861,0 -131.09375,60.16317 -131.09375,134.375 0,74.23482 58.67514,134.4375 131.09375,134.4375 72.32665,0 131.125,-60.20268 131.125,-134.4375 0,-74.21183 -58.79835,-134.375 -131.125,-134.375 z m -7.3125,24.46875 c 28.27774,0 51.25,24.85429 51.25,55.5 0,30.59973 -22.97226,55.4375 -51.25,55.4375 -28.39269,0 -51.40625,-24.83777 -51.40625,-55.4375 0,-30.64571 23.01356,-55.5 51.40625,-55.5 z"
             transform="matrix(0.04349711,0,0,-0.04349711,-17.721613,20.027749)"
             id="path11742"
             style="fill:#44aa00;fill-opacity:1;fill-rule:nonzero;stroke:none" /></g><g
           transform="translate(358.81028,331.94269)"
           id="g11744"
           style="fill:#44aa00"><path
             d="m 718.5,349.28125 c -2.65423,0.0331 -5.30622,0.26075 -7.96875,0.6875 -42.55455,6.82804 -69.11919,62.51708 -59.1875,124.40625 9.95468,61.91216 52.518,106.46956 95.1875,99.6875 42.53156,-6.92 69.07968,-62.5336 59.125,-124.46875 C 796.30218,391.61576 758.31348,348.7841 718.5,349.28125 z m 17.5625,33.4375 c 17.01659,-0.14224 33.97047,13.18185 40.46875,33.375 7.74764,24.0016 -2.10357,48.63355 -21.875,55.09375 -19.8404,6.34525 -42.1191,-7.95889 -49.84375,-31.9375 -7.79362,-24.0016 2.02634,-48.61703 21.84375,-55.03125 3.08929,-0.99145 6.25503,-1.47366 9.40625,-1.5 z"
             transform="matrix(0.04349711,0,0,-0.04349711,-35.043813,19.556049)"
             id="path11746"
             style="fill:#44aa00;fill-opacity:1;fill-rule:nonzero;stroke:none" /></g><g
           transform="translate(352.70188,335.93489)"
           id="g11748"
           style="fill:#44aa00"><path
             d="m 652.125,354.8125 c -0.29366,0.014 -0.48118,0.0443 -0.5625,0.0625 0.0242,0.004 0.0333,0.0312 0.0937,0.0312 -13.12731,13.33422 -36.9499,66.02891 -39.59375,122.90625 -1.35641,88.55761 -176.89512,29.81018 -187.5625,37.71875 -66.09635,144.1705 -209.50751,76.8427 -183,98.0625 260.54607,142.81409 262.54284,372.34352 331.375,273.1875 26.43854,-59.54419 93.24159,-268.68052 144.1875,-287.1875 -131.2501,-49.77342 -98.88136,-202.23839 -51.84375,-241.78125 -6.0004,-2.89674 -11.33178,-3.08406 -13.09375,-3 z m -99.03125,326.5 c 20.31992,-0.0268 35.29993,4.73102 36.59375,12.65625 0.008,0.0215 0.0231,0.0409 0.0312,0.0625 0.003,0.0198 -0.003,0.0426 0,0.0625 2.5792,7.06586 -9.18338,18.19639 -20.78125,35.6875 -18.59894,29.93302 10.78223,37.26209 17.65625,28.25 77.21045,-119.44386 15.41819,46.34405 -33,76.53125 l 0.0625,0.40625 c -0.15371,-0.0398 -0.31418,-0.0832 -0.46875,-0.125 -0.0708,0.0431 -0.14799,0.0825 -0.21875,0.125 L 552.9375,834.75 C 497.94059,819.52706 389.40245,676.56803 497.375,769.25 509.46776,775.50329 527.90359,757.07774 508.5,738.59375 493.77215,726.14341 480.39714,718.9122 478.71875,712 c -0.1832,-0.47959 -0.33202,-0.96334 -0.40625,-1.46875 -1.5377,-10.64913 21.96663,-23.0205 52.71875,-27.5 l 0,-0.0312 c 0.0434,10e-4 0.0817,-10e-4 0.125,0 0.0108,3.6e-4 0.0204,-3.6e-4 0.0312,0 7.69017,-1.14375 15.09725,-1.67852 21.90625,-1.6875 z"
             transform="matrix(0.04349711,0,0,-0.04349711,-28.935413,15.563849)"
             id="path11750"
             style="fill:#44aa00;fill-opacity:1;fill-rule:nonzero;stroke:none" /></g><g
           transform="translate(345.39228,336.12629)"
           id="g11752"
           style="fill:#44aa00"><path
             d="m 0,0 c 0,-0.564 -0.56,-1.021 -1.249,-1.021 -0.691,0 -1.252,0.457 -1.252,1.021 0,0.564 0.561,1.021 1.252,1.021 C -0.56,1.021 0,0.564 0,0"
             id="path11754"
             style="fill:#44aa00;fill-opacity:1;fill-rule:nonzero;stroke:none" /></g><g
           transform="translate(343.85038,336.20339)"
           id="g11756"
           style="fill:#44aa00"><path
             d="m 0,0 c -10.857,10.568 -16.44,7.541 -16.227,8.826 0.33,1.903 8.994,3.825 16.911,-8.41 C 0.71,0.272 0.375,-0.317 0,0"
             id="path11758"
             style="fill:#44aa00;fill-opacity:1;fill-rule:nonzero;stroke:none" /></g><g
           transform="translate(337.69458,333.83809)"
           id="g11760"
           style="fill:#44aa00" /><g
           transform="translate(357.54338,333.39999)"
           id="g11764"
           style="fill:#44aa00" /><g
           transform="translate(344.64138,337.27959)"
           id="g11768"
           style="fill:#44aa00"><path
             d="M 0,0 C 1.3,0.048 2.354,0.157 3.917,-0.027 4.68,-0.116 5.448,-0.242 6.194,-0.413 6.934,-0.578 6.922,-0.811 8.062,-1.345 8.009,-1.138 7.39,-0.372 6.231,-0.097 5.591,0.06 4.837,0.198 3.954,0.299 2.662,0.452 1.585,0.379 -0.273,0.314"
             id="path11770"
             style="fill:#44aa00;fill-opacity:1;fill-rule:nonzero;stroke:none" /></g><g
           transform="translate(342.04958,337.43489)"
           id="g11772"
           style="fill:#44aa00"><path
             d="M 0,0 C -1.032,-0.075 -0.67,-0.128 -1.892,-0.288 L -1.976,-0.64 c 0.794,0.074 0.849,0.197 2.263,0.316"
             id="path11774"
             style="fill:#44aa00;fill-opacity:1;fill-rule:nonzero;stroke:none" /></g><g
           transform="translate(340.15888,337.14679)"
           id="g11776"
           style="fill:#44aa00"><path
             d="m 0,0 c -1.744,-0.322 2.807,-1.402 2.218,-7.102 0.569,-0.586 1.318,4.254 -2.274,6.81"
             id="path11778"
             style="fill:#44aa00;fill-opacity:1;fill-rule:nonzero;stroke:none" /></g><g
           transform="translate(346.86498,321.79039)"
           id="g11780"
           style="fill:#44aa00" /><g
           transform="translate(346.89228,321.78739)"
           id="g11784"
           style="fill:#44aa00" /><g
           transform="translate(349.41768,321.30789)"
           id="g11788"
           style="fill:#44aa00" /><g
           transform="translate(349.45878,318.99059)"
           id="g11792"
           style="fill:#44aa00"><path
             d="m 0,0 c 0,-0.354 -0.27,-0.64 -0.603,-0.64 -0.331,0 -0.599,0.286 -0.599,0.64 0,0.354 0.268,0.644 0.599,0.644 C -0.27,0.644 0,0.354 0,0"
             id="path11794"
             style="fill:#44aa00;fill-opacity:1;fill-rule:nonzero;stroke:none" /></g><g
           transform="translate(346.25558,318.64779)"
           id="g11796"
           style="fill:#44aa00"><path
             d="m 0,0 c 0,-0.354 -0.27,-0.642 -0.604,-0.642 -0.333,0 -0.601,0.288 -0.601,0.642 0,0.354 0.268,0.64 0.601,0.64 C -0.27,0.64 0,0.354 0,0"
             id="path11798"
             style="fill:#44aa00;fill-opacity:1;fill-rule:nonzero;stroke:none" /></g><g
           transform="translate(350.83568,336.86649)"
           id="g11800"
           style="fill:#44aa00"><path
             d="M 0,0 C 0.467,-0.14 1.509,-0.286 0.979,-1.272 0.448,-2.259 0.484,-3.063 0.796,-2.368 1.105,-1.674 1.6,-1.236 1.781,-0.998 2.165,-0.779 0.996,0.135 0.139,0.299"
             id="path11802"
             style="fill:#44aa00;fill-opacity:1;fill-rule:nonzero;stroke:none" /></g><g
           transform="translate(350.61888,317.93099)"
           id="g11804"
           style="fill:#44aa00"><path
             d="M 0,0 C 1.269,3.167 3.69,7.168 4.354,7.335 5.021,7.504 3.217,7.552 1.366,9.792 -0.485,12.034 1.071,3.556 0,0"
             id="path11806"
             style="fill:#44aa00;fill-opacity:1;fill-rule:nonzero;stroke:none" /></g><g
           transform="translate(348.99198,336.20339)"
           id="g11808"
           style="fill:#44aa00"><path
             d="M 0,0 C 10.857,10.568 16.45,7.541 16.235,8.826 15.906,10.729 7.257,12.626 -0.658,0.391 -0.688,0.247 -0.375,-0.317 0,0"
             id="path11810"
             style="fill:#44aa00;fill-opacity:1;fill-rule:nonzero;stroke:none" /></g><g
           transform="translate(474.5977,313.1064)"
           id="g11812"
           style="fill:#44aa00" /><g
           transform="translate(347.44118,336.37919)"
           id="g11816"
           style="fill:#44aa00"><path
             d="M 0,0 C -0.162,-0.538 0.239,-1.137 0.901,-1.338 1.563,-1.536 2.232,-1.263 2.396,-0.722 2.558,-0.183 2.152,0.416 1.49,0.617 0.83,0.815 0.161,0.539 0,0"
             id="path11818"
             style="fill:#44aa00;fill-opacity:1;fill-rule:nonzero;stroke:none" /></g><g
           transform="translate(349.51828,317.13219)"
           id="g11820"
           style="fill:#44aa00"><path
             d="M 0,0 C -0.475,-0.693 -1.314,-2.703 -3.544,-0.877 -5.771,0.95 -1.461,-6.868 0,0"
             id="path11822"
             style="fill:#44aa00;fill-opacity:1;fill-rule:nonzero;stroke:none" /></g><g
           transform="translate(341.94698,320.16049)"
           id="g11828"
           style="fill:#44aa00"><path
             d="M 0,0 C 2.483,-1.704 3.021,-2.68 4.142,-1.899 5.262,-1.12 0.438,1.462 2.094,2.096 3.751,2.729 -0.634,1.851 0,0"
             id="path11830"
             style="fill:#44aa00;fill-opacity:1;fill-rule:nonzero;stroke:none" /></g><g
           transform="translate(351.51638,320.17119)"
           id="g11832"
           style="fill:#44aa00"><path
             d="m 0,0 c -2.144,-1.694 -2.123,-2.194 -3.08,-1.41 -0.958,0.785 2.711,2.873 1.292,3.514 C -3.208,2.745 0.552,1.848 0,0"
             id="path11834"
             style="fill:#44aa00;fill-opacity:1;fill-rule:nonzero;stroke:none" /></g></g></g></g></svg>