<?xml version="1.0" encoding="UTF-8" standalone="no"?>
<!-- Created with Inkscape (http://www.inkscape.org/) -->

<svg
   xmlns:dc="http://purl.org/dc/elements/1.1/"
   xmlns:cc="http://creativecommons.org/ns#"
   xmlns:rdf="http://www.w3.org/1999/02/22-rdf-syntax-ns#"
   xmlns:svg="http://www.w3.org/2000/svg"
   xmlns="http://www.w3.org/2000/svg"
   version="1.1"
   width="165"
   height="36"
   viewBox="0 0 165 36.000001"
   id="logo"
   xml:space="preserve"><metadata
     id="metadata41"><rdf:RDF><cc:Work
         rdf:about=""><dc:format>image/svg+xml</dc:format><dc:type
           rdf:resource="http://purl.org/dc/dcmitype/StillImage" /><dc:title></dc:title></cc:Work></rdf:RDF></metadata><defs
     id="defs39"><filter
       color-interpolation-filters="sRGB"
       id="filter3115"><feFlood
         result="flood"
         flood-color="rgb(0,0,0)"
         flood-opacity="0.85"
         id="feFlood3117" /><feComposite
         in2="SourceGraphic"
         operator="in"
         in="flood"
         result="composite1"
         id="feComposite3119" /><feGaussianBlur
         result="blur"
         stdDeviation="0.5"
         id="feGaussianBlur3121" /><feOffset
         result="offset"
         dy="1"
         dx="1"
         id="feOffset3123" /><feComposite
         in2="offset"
         operator="over"
         in="SourceGraphic"
         result="composite2"
         id="feComposite3125" /></filter></defs><g
     transform="translate(-96.567045,-4.3687139)"
     id="Cincom"
     style="display:none"><g
       id="g4"
       style="display:inline"><path
         d="m 72.133,37.795 c 0,-0.352 -0.142,-0.578 -0.43,-0.695 -0.159,-0.063 -0.409,-0.103 -0.754,-0.103 h -0.962 v 2.753 h 0.485 v -1.078 h 0.386 c 0.253,0 0.436,0.027 0.536,0.088 0.179,0.102 0.265,0.309 0.265,0.627 V 39.6 l 0.006,0.088 c 0.002,0.015 0.002,0.023 0.008,0.038 0,0.003 0.006,0.015 0.01,0.024 h 0.45 l -0.014,-0.033 c -0.012,-0.026 -0.021,-0.07 -0.023,-0.148 -0.004,-0.067 -0.012,-0.138 -0.012,-0.201 v -0.2 c 0,-0.142 -0.047,-0.278 -0.145,-0.428 -0.097,-0.142 -0.253,-0.235 -0.471,-0.267 0.17,-0.03 0.304,-0.07 0.397,-0.132 0.18,-0.121 0.268,-0.296 0.268,-0.546 z m -0.75,0.465 c -0.105,0.048 -0.259,0.066 -0.468,0.066 h -0.441 v -0.984 h 0.418 c 0.271,0 0.465,0.035 0.592,0.1 0.126,0.068 0.183,0.199 0.183,0.398 -0.001,0.209 -0.093,0.348 -0.284,0.42 z M 71,35.893 c -0.692,0 -1.275,0.24 -1.76,0.723 -0.489,0.492 -0.734,1.073 -0.734,1.762 0,0.691 0.242,1.287 0.725,1.772 0.486,0.485 1.077,0.737 1.77,0.737 0.691,0 1.278,-0.252 1.769,-0.737 0.487,-0.485 0.73,-1.081 0.73,-1.772 0,-0.688 -0.243,-1.272 -0.73,-1.762 C 72.278,36.133 71.691,35.893 71,35.893 z m 1.52,4.021 c -0.418,0.415 -0.924,0.626 -1.525,0.626 -0.598,0 -1.101,-0.211 -1.522,-0.626 -0.415,-0.424 -0.621,-0.938 -0.621,-1.533 0,-0.595 0.208,-1.094 0.626,-1.514 0.421,-0.422 0.928,-0.633 1.517,-0.633 0.601,0 1.104,0.211 1.525,0.633 0.418,0.42 0.626,0.918 0.626,1.514 0,0.596 -0.208,1.109 -0.626,1.533 z m 25.96,-3.951 c -6.158,0 -10.247,-4.721 -10.247,-11.096 0,-5.945 4.089,-10.671 10.247,-10.671 2.066,0 4.092,0.634 6.286,2.953 l 4.133,-3.034 c -2.953,-3.416 -6.412,-4.723 -10.459,-4.723 -9.193,0 -15.775,6.242 -15.775,15.814 0,9.325 6.582,15.567 15.775,15.567 4.386,0 8.435,-1.604 11.137,-5.319 l -4.39,-3.117 c -1.985,2.533 -4.305,3.626 -6.707,3.626 z m 12.529,4.048 h 5.061 V 19.766 h -5.061 v 20.245 z m 2.489,-30.16 c -1.854,0 -3.207,1.435 -3.207,3.04 0,1.603 1.352,3.037 3.207,3.037 1.857,0 3.291,-1.309 3.291,-3.037 0,-1.731 -1.435,-3.04 -3.291,-3.04 z m 16.285,9.407 c -3.374,0 -5.27,1.731 -6.2,3.758 h -0.086 v -3.25 h -4.804 v 20.245 h 5.057 v -11.05 c 0,-2.699 1.311,-5.143 4.643,-5.143 3.541,0 3.711,3.707 3.711,5.943 V 40.01 h 5.061 V 27.232 c 0.001,-4.134 -1.94,-7.974 -7.382,-7.974 z m 20.218,16.705 c -3.715,0 -5.95,-2.909 -5.95,-6.072 0,-3.162 2.235,-6.072 5.95,-6.072 1.348,0 2.651,0.798 3.834,2.022 l 3.501,-3.502 c -1.941,-2.151 -4.767,-3.081 -7.336,-3.081 -6.121,0 -11.014,4.264 -11.014,10.633 0,6.364 4.893,10.625 11.014,10.625 1.766,0 5.228,-0.754 7.294,-2.827 l -3.377,-3.62 c -0.923,1.22 -2.362,1.894 -3.916,1.894 z m 17.571,-16.705 c -6.121,0 -11.01,4.264 -11.01,10.633 0,6.364 4.89,10.625 11.01,10.625 6.117,0 11.007,-4.261 11.007,-10.625 0,-6.37 -4.89,-10.633 -11.007,-10.633 z m 0,16.705 c -3.712,0 -5.949,-2.909 -5.949,-6.072 0,-3.162 2.237,-6.072 5.949,-6.072 3.712,0 5.946,2.91 5.946,6.072 0.001,3.163 -2.234,6.072 -5.946,6.072 z m 36.991,-16.705 c -3.032,0 -5.478,1.184 -6.947,3.758 -1.054,-2.53 -3.205,-3.758 -6.331,-3.758 -3.372,0 -5.025,1.771 -5.912,3.674 h -0.088 v -3.166 h -4.802 v 20.245 h 5.058 v -11.05 c 0,-2.699 1.021,-5.143 4.351,-5.143 2.449,0 3.462,1.645 3.462,4.134 l 0.286,12.059 h 5.06 l -0.288,-10.962 c 0,-2.619 1.187,-5.23 4.349,-5.23 2.99,0 4.041,2.191 4.041,4.721 v 11.472 h 5.055 v -12.06 c -0.002,-4.854 -1.894,-8.694 -7.294,-8.694 z M 68.54,34.35 h 0.035 v -0.068 c 0.02,-0.012 0.043,-0.023 0.071,-0.033 v -0.074 c 0.02,-0.006 0.041,-0.018 0.067,-0.031 v -0.068 c 0.021,-0.01 0.044,-0.023 0.068,-0.035 0.012,-0.045 0.024,-0.092 0.036,-0.136 h 0.035 c 0.008,-0.036 0.02,-0.067 0.032,-0.103 0.021,-0.016 0.045,-0.022 0.068,-0.035 v -0.069 h 0.035 v -0.069 c 0.02,-0.01 0.047,-0.021 0.067,-0.029 0.009,-0.053 0.023,-0.096 0.035,-0.139 0.023,-0.012 0.045,-0.023 0.068,-0.038 0.012,-0.044 0.023,-0.091 0.032,-0.136 0.023,-0.012 0.051,-0.023 0.071,-0.033 0.023,-0.068 0.044,-0.138 0.068,-0.205 0.024,-0.014 0.044,-0.021 0.067,-0.035 v -0.068 h 0.035 v -0.07 h 0.036 V 32.808 H 69.5 v -0.066 h 0.035 V 32.671 L 69.602,32.6 v -0.07 c 0.023,-0.009 0.047,-0.021 0.071,-0.032 0.009,-0.043 0.021,-0.09 0.033,-0.134 h 0.035 c 0.008,-0.051 0.023,-0.099 0.035,-0.142 h 0.029 v -0.104 h 0.036 V 32.05 h 0.035 v -0.068 h 0.038 v -0.068 h 0.033 c 0.023,-0.066 0.043,-0.137 0.064,-0.205 h 0.038 v -0.102 h 0.033 c 0.014,-0.047 0.026,-0.092 0.035,-0.139 h 0.036 v -0.102 h 0.035 c 0.008,-0.047 0.02,-0.092 0.032,-0.137 h 0.036 v -0.103 h 0.033 v -0.073 h 0.035 v -0.097 h 0.032 v -0.073 h 0.035 v -0.099 h 0.035 v -0.071 h 0.033 c 0.026,-0.103 0.047,-0.209 0.067,-0.309 h 0.035 v -0.067 h 0.036 c 0.012,-0.069 0.023,-0.14 0.035,-0.208 h 0.033 V 30.027 H 70.7 v -0.103 h 0.038 v -0.103 h 0.029 v -0.103 h 0.036 v -0.136 h 0.033 v -0.104 h 0.035 v -0.106 h 0.032 c 0.015,-0.08 0.027,-0.158 0.035,-0.236 h 0.036 C 71,29 71.018,28.863 71.044,28.727 h 0.035 c 0.021,-0.14 0.045,-0.273 0.069,-0.412 h 0.029 v -0.174 h 0.035 v -0.132 h 0.035 v -0.175 h 0.038 v -0.203 h 0.033 v -0.174 h 0.032 v -0.203 c 0.088,-0.304 0.083,-0.719 0.174,-1.031 v -0.379 h 0.036 v -0.478 c 0.096,-0.345 0.031,-0.896 0.031,-1.302 v -3.362 c 0,-0.355 -0.047,-0.835 0.033,-1.133 V 7.126 h -1.71 V 7.163 H 69.466 V 7.196 H 69.125 V 7.23 H 68.852 V 7.263 H 68.61 V 7.3 h -0.242 v 0.037 h -0.206 v 0.03 h -0.171 v 0.035 c -0.127,0.01 -0.25,0.023 -0.376,0.035 V 7.47 c -0.104,0.013 -0.206,0.023 -0.31,0.034 V 7.54 H 67.167 V 7.573 H 67.028 V 7.606 H 66.892 V 7.64 H 66.757 V 7.675 H 66.62 v 0.034 h -0.1 V 7.742 H 66.381 V 7.777 H 66.278 V 7.814 H 66.14 v 0.034 h -0.1 V 7.881 H 65.934 V 7.914 H 65.832 V 7.947 H 65.731 V 7.985 H 65.627 V 8.017 H 65.524 V 8.05 c -0.104,0.025 -0.206,0.049 -0.31,0.072 v 0.033 h -0.071 v 0.036 c -0.07,0.012 -0.135,0.023 -0.202,0.035 V 8.258 H 64.867 V 8.29 h -0.1 V 8.327 H 64.7 V 8.36 C 64.641,8.372 64.584,8.385 64.529,8.394 V 8.431 H 64.423 V 8.465 H 64.359 V 8.499 H 64.253 V 8.532 C 64.209,8.544 64.165,8.555 64.12,8.566 v 0.037 h -0.073 v 0.032 h -0.104 v 0.034 h -0.067 v 0.034 c -0.045,0.014 -0.092,0.023 -0.135,0.033 v 0.038 c -0.045,0.011 -0.088,0.022 -0.139,0.034 v 0.033 c -0.043,0.013 -0.094,0.023 -0.138,0.035 v 0.036 h -0.068 v 0.032 h -0.067 v 0.034 h -0.071 v 0.035 h -0.065 v 0.036 h -0.07 V 9.08 h -0.068 v 0.039 h -0.067 v 0.034 h -0.07 V 9.184 H 62.85 L 62.783,9.253 H 62.715 C 62.703,9.274 62.692,9.299 62.677,9.32 62.609,9.343 62.544,9.367 62.473,9.392 62.461,9.412 62.45,9.435 62.438,9.461 H 62.367 V 9.494 H 62.302 C 62.288,9.517 62.279,9.537 62.267,9.561 62.2,9.584 62.129,9.605 62.061,9.629 62.049,9.654 62.038,9.676 62.029,9.7 61.982,9.709 61.937,9.719 61.887,9.733 61.882,9.754 61.87,9.78 61.854,9.802 H 61.787 V 9.835 H 61.719 C 61.707,9.858 61.695,9.88 61.683,9.903 h -0.07 c -0.008,0.023 -0.021,0.043 -0.032,0.07 -0.047,0.008 -0.092,0.021 -0.139,0.032 v 0.035 c -0.032,0.012 -0.071,0.022 -0.103,0.034 -0.009,0.022 -0.021,0.044 -0.033,0.067 -0.047,0.013 -0.091,0.023 -0.136,0.037 -0.014,0.022 -0.026,0.043 -0.035,0.067 h -0.071 v 0.036 c -0.032,0.008 -0.07,0.022 -0.1,0.032 -0.012,0.025 -0.026,0.046 -0.035,0.071 h -0.067 c -0.023,0.033 -0.047,0.067 -0.07,0.1 h -0.068 v 0.037 c -0.032,0.012 -0.067,0.022 -0.103,0.034 -0.009,0.025 -0.021,0.048 -0.035,0.068 h -0.068 c -0.024,0.037 -0.043,0.067 -0.065,0.103 h -0.07 c -0.024,0.036 -0.047,0.068 -0.071,0.104 h -0.067 c -0.021,0.035 -0.047,0.067 -0.068,0.101 h -0.071 c -0.032,0.05 -0.067,0.095 -0.1,0.14 h -0.071 c -0.032,0.045 -0.067,0.09 -0.102,0.137 h -0.065 c -0.05,0.06 -0.094,0.113 -0.141,0.172 h -0.065 c -0.074,0.082 -0.139,0.16 -0.206,0.238 -0.28,0.204 -0.482,0.445 -0.724,0.688 -0.171,0.16 -0.342,0.319 -0.516,0.479 v 0.068 c -0.076,0.069 -0.159,0.138 -0.238,0.206 v 0.069 c -0.068,0.057 -0.135,0.113 -0.206,0.171 v 0.068 c -0.045,0.032 -0.088,0.067 -0.135,0.105 v 0.067 c -0.047,0.034 -0.094,0.067 -0.136,0.1 v 0.07 c -0.047,0.034 -0.094,0.066 -0.139,0.104 -0.012,0.032 -0.023,0.065 -0.032,0.103 -0.023,0.012 -0.051,0.021 -0.071,0.035 v 0.067 c -0.044,0.035 -0.092,0.067 -0.135,0.103 v 0.066 c -0.036,0.023 -0.071,0.047 -0.104,0.071 v 0.067 c -0.024,0.013 -0.047,0.021 -0.067,0.036 v 0.065 c -0.039,0.025 -0.071,0.047 -0.106,0.071 v 0.067 c -0.023,0.012 -0.044,0.021 -0.068,0.036 v 0.065 c -0.035,0.025 -0.071,0.047 -0.103,0.068 v 0.068 h -0.039 c -0.008,0.038 -0.02,0.07 -0.032,0.105 -0.021,0.01 -0.045,0.02 -0.068,0.033 v 0.067 c -0.035,0.024 -0.067,0.045 -0.103,0.071 v 0.068 c -0.023,0.01 -0.047,0.02 -0.068,0.035 v 0.066 c -0.02,0.012 -0.047,0.021 -0.067,0.035 -0.012,0.035 -0.024,0.067 -0.035,0.102 h -0.036 c -0.009,0.045 -0.021,0.091 -0.033,0.139 H 56.06 c -0.014,0.035 -0.02,0.068 -0.036,0.104 -0.02,0.012 -0.043,0.02 -0.066,0.033 -0.01,0.045 -0.021,0.093 -0.036,0.136 -0.021,0.011 -0.045,0.026 -0.068,0.036 -0.012,0.043 -0.02,0.092 -0.032,0.137 -0.027,0.012 -0.047,0.023 -0.071,0.033 -0.009,0.045 -0.021,0.092 -0.035,0.139 -0.021,0.009 -0.045,0.021 -0.068,0.033 v 0.067 h -0.032 v 0.069 l -0.068,0.068 v 0.07 c -0.023,0.012 -0.043,0.02 -0.071,0.032 -0.082,0.184 -0.159,0.368 -0.241,0.55 h -0.032 v 0.067 h -0.035 v 0.07 h -0.033 v 0.067 h -0.032 v 0.069 h -0.035 c -0.024,0.068 -0.047,0.138 -0.071,0.206 h -0.033 c -0.014,0.057 -0.023,0.114 -0.038,0.174 h -0.033 c -0.023,0.067 -0.043,0.134 -0.067,0.201 h -0.036 v 0.105 h -0.033 c -0.023,0.068 -0.043,0.135 -0.07,0.207 H 54.656 V 6.512 H 52.907 V 6.545 H 52.356 V 6.58 H 51.948 V 6.615 H 51.636 V 6.647 H 51.365 V 6.683 H 51.126 V 6.716 H 50.884 V 6.75 H 50.678 V 6.783 H 50.505 V 6.818 C 50.381,6.83 50.254,6.839 50.128,6.852 V 6.886 H 49.957 V 6.92 c -0.104,0.013 -0.206,0.023 -0.31,0.036 V 6.99 H 49.509 V 7.028 H 49.373 V 7.059 H 49.234 V 7.094 H 49.099 V 7.127 H 48.996 V 7.164 H 48.861 V 7.197 H 48.757 V 7.23 H 48.619 V 7.263 C 48.504,7.287 48.392,7.31 48.274,7.336 v 0.03 h -0.103 v 0.035 h -0.1 V 7.436 H 47.965 V 7.47 C 47.897,7.483 47.832,7.493 47.759,7.504 V 7.54 H 47.694 V 7.573 C 47.59,7.596 47.488,7.62 47.382,7.64 V 7.675 H 47.314 V 7.709 H 47.22 V 7.742 H 47.146 V 7.777 C 47.091,7.789 47.032,7.802 46.979,7.814 V 7.848 H 46.873 V 7.881 H 46.805 V 7.914 H 46.702 V 7.947 C 46.658,7.961 46.61,7.974 46.563,7.985 V 8.017 H 46.496 V 8.05 H 46.392 V 8.088 H 46.325 V 8.122 C 46.257,8.143 46.186,8.167 46.119,8.19 V 8.225 H 46.015 V 8.257 C 45.948,8.279 45.88,8.304 45.807,8.325 V 8.36 h -0.064 v 0.034 h -0.068 v 0.037 c -0.073,0.02 -0.138,0.044 -0.206,0.068 -0.014,0.025 -0.023,0.045 -0.035,0.067 h -0.071 l -0.065,0.068 h -0.07 V 8.668 H 45.16 V 8.702 C 45.113,8.716 45.068,8.725 45.019,8.735 45.013,8.761 45.001,8.783 44.989,8.807 44.921,8.828 44.854,8.853 44.78,8.875 44.772,8.898 44.762,8.921 44.748,8.943 44.701,8.954 44.656,8.965 44.609,8.977 44.601,9.001 44.589,9.024 44.577,9.048 44.53,9.057 44.485,9.07 44.438,9.079 44.426,9.103 44.418,9.125 44.403,9.152 44.36,9.161 44.315,9.171 44.267,9.183 44.255,9.205 44.244,9.23 44.232,9.252 H 44.167 C 44.153,9.273 44.144,9.298 44.132,9.319 H 44.061 C 44.049,9.342 44.038,9.366 44.029,9.391 43.985,9.399 43.937,9.411 43.89,9.42 43.882,9.445 43.867,9.467 43.855,9.493 H 43.788 C 43.777,9.516 43.765,9.536 43.755,9.56 H 43.684 C 43.661,9.594 43.641,9.628 43.617,9.664 H 43.546 V 9.699 C 43.513,9.708 43.482,9.718 43.442,9.732 43.43,9.753 43.422,9.779 43.41,9.801 H 43.342 C 43.33,9.82 43.316,9.845 43.307,9.867 43.275,9.879 43.24,9.893 43.201,9.903 c -0.018,0.035 -0.043,0.07 -0.065,0.103 h -0.07 c -0.024,0.035 -0.044,0.069 -0.067,0.102 h -0.068 c -0.023,0.034 -0.047,0.071 -0.07,0.102 h -0.067 c -0.023,0.036 -0.045,0.072 -0.068,0.104 H 42.66 c -0.038,0.046 -0.07,0.093 -0.108,0.138 h -0.064 c -0.047,0.059 -0.094,0.117 -0.139,0.172 h -0.071 c -0.043,0.06 -0.09,0.115 -0.138,0.171 h -0.068 c -0.079,0.093 -0.159,0.186 -0.238,0.276 h -0.068 c -0.162,0.17 -0.321,0.342 -0.479,0.514 h -0.068 c -0.014,0.023 -0.026,0.045 -0.035,0.068 -0.067,0.055 -0.142,0.115 -0.206,0.169 v 0.07 c -0.171,0.16 -0.341,0.323 -0.515,0.481 v 0.067 c -0.092,0.08 -0.183,0.161 -0.271,0.24 v 0.069 c -0.059,0.045 -0.118,0.092 -0.17,0.138 v 0.067 c -0.062,0.043 -0.118,0.092 -0.174,0.138 v 0.067 c -0.047,0.035 -0.091,0.07 -0.142,0.104 v 0.066 c -0.029,0.026 -0.064,0.05 -0.1,0.068 v 0.073 c -0.047,0.032 -0.09,0.067 -0.138,0.102 v 0.065 c -0.021,0.015 -0.044,0.025 -0.068,0.035 v 0.069 c -0.021,0.012 -0.047,0.024 -0.067,0.032 -0.012,0.038 -0.021,0.07 -0.035,0.104 -0.033,0.025 -0.068,0.049 -0.104,0.072 v 0.067 c -0.02,0.013 -0.043,0.021 -0.067,0.035 v 0.067 c -0.035,0.023 -0.068,0.046 -0.1,0.066 v 0.071 c -0.023,0.014 -0.047,0.021 -0.071,0.032 v 0.071 c -0.023,0.011 -0.047,0.021 -0.068,0.033 v 0.066 c -0.023,0.013 -0.047,0.025 -0.07,0.037 v 0.067 c -0.02,0.012 -0.043,0.021 -0.067,0.036 -0.012,0.046 -0.021,0.091 -0.035,0.134 H 38.68 c -0.009,0.035 -0.021,0.068 -0.033,0.106 -0.02,0.011 -0.047,0.019 -0.067,0.032 v 0.068 c -0.023,0.012 -0.047,0.023 -0.068,0.033 -0.014,0.047 -0.026,0.091 -0.036,0.139 -0.023,0.012 -0.043,0.023 -0.067,0.035 -0.027,0.068 -0.047,0.137 -0.071,0.204 -0.023,0.011 -0.047,0.024 -0.068,0.034 -0.012,0.045 -0.021,0.091 -0.036,0.139 -0.024,0.012 -0.043,0.021 -0.067,0.035 v 0.068 H 38.13 v 0.066 h -0.033 v 0.068 l -0.071,0.07 v 0.068 c -0.02,0.011 -0.044,0.023 -0.067,0.033 v 0.068 l -0.069,0.07 v 0.068 h -0.032 v 0.067 H 37.82 v 0.066 h -0.031 v 0.069 h -0.036 v 0.069 h -0.035 v 0.068 h -0.033 v 0.068 h -0.032 c -0.023,0.068 -0.05,0.139 -0.07,0.206 h -0.036 c -0.009,0.058 -0.021,0.117 -0.033,0.173 h -0.036 c -0.012,0.046 -0.023,0.09 -0.032,0.137 h -0.035 v 0.104 h -0.035 c -0.012,0.045 -0.023,0.091 -0.033,0.137 h -0.035 v 0.104 h -0.035 c -0.012,0.045 -0.024,0.087 -0.036,0.136 h -0.032 v 0.102 h -0.033 v 0.07 h -0.036 c -0.014,0.057 -0.023,0.115 -0.032,0.17 H 37.07 c -0.012,0.072 -0.023,0.141 -0.039,0.208 H 37 v 0.065 h -0.033 c -0.024,0.105 -0.047,0.209 -0.071,0.311 h -0.032 v 0.104 h -0.036 v 0.103 h -0.033 v 0.102 H 36.76 v 0.102 h -0.035 v 0.104 h -0.036 v 0.104 h -0.031 c -0.024,0.116 -0.047,0.229 -0.071,0.341 h -0.033 c -0.023,0.127 -0.047,0.255 -0.067,0.377 h -0.036 v 0.142 h -0.035 v 0.134 h -0.033 v 0.14 h -0.036 c -0.014,0.104 -0.023,0.205 -0.032,0.307 H 36.28 v 0.171 c -0.092,0.287 -0.121,0.667 -0.206,0.962 v 0.239 h -0.039 v 0.239 h -0.032 v 0.311 h -0.035 v 0.378 h -0.033 v 0.444 H 35.9 v 0.615 c 0,0.439 -0.064,1.191 0.035,1.547 v 0.476 c 0.074,0.265 0.062,0.639 0.139,0.895 v 0.239 c 0.085,0.299 0.114,0.67 0.206,0.962 v 0.168 h 0.035 c 0.008,0.104 0.018,0.204 0.032,0.306 h 0.036 v 0.141 h 0.033 v 0.139 h 0.035 v 0.138 h 0.036 c 0.02,0.12 0.044,0.25 0.067,0.376 h 0.033 c 0.012,0.079 0.023,0.158 0.036,0.241 h 0.035 v 0.099 h 0.031 v 0.106 h 0.036 v 0.103 h 0.035 v 0.103 h 0.036 v 0.103 h 0.033 v 0.102 h 0.036 v 0.104 h 0.032 v 0.104 h 0.035 v 0.099 h 0.036 v 0.104 c 0.324,0.744 0.616,1.541 1.024,2.197 v 0.066 h 0.035 v 0.068 h 0.035 v 0.07 l 0.068,0.068 v 0.068 c 0.024,0.011 0.047,0.021 0.071,0.034 0.02,0.069 0.047,0.138 0.067,0.206 0.021,0.01 0.044,0.021 0.068,0.033 0.008,0.047 0.024,0.094 0.032,0.138 0.024,0.011 0.047,0.023 0.068,0.035 0.014,0.048 0.026,0.091 0.038,0.134 0.021,0.016 0.047,0.026 0.068,0.036 0.012,0.047 0.024,0.089 0.035,0.14 0.021,0.01 0.047,0.021 0.067,0.031 v 0.068 c 0.023,0.012 0.047,0.023 0.068,0.039 v 0.064 c 0.023,0.012 0.047,0.025 0.07,0.035 v 0.068 c 0.024,0.014 0.044,0.025 0.067,0.031 v 0.074 c 0.023,0.01 0.045,0.021 0.068,0.033 v 0.068 h 0.035 c 0.012,0.03 0.023,0.065 0.035,0.102 0.024,0.012 0.047,0.022 0.067,0.035 v 0.068 c 0.021,0.012 0.047,0.02 0.068,0.035 v 0.067 c 0.035,0.02 0.067,0.046 0.103,0.067 v 0.068 c 0.023,0.013 0.047,0.021 0.068,0.036 v 0.068 c 0.035,0.019 0.07,0.047 0.103,0.066 v 0.069 c 0.035,0.023 0.068,0.044 0.104,0.067 v 0.071 c 0.032,0.023 0.067,0.044 0.102,0.07 V 35.3 c 0.047,0.034 0.092,0.064 0.136,0.102 v 0.065 c 0.047,0.038 0.094,0.067 0.139,0.104 v 0.071 c 0.059,0.047 0.114,0.094 0.171,0.135 v 0.066 c 0.07,0.059 0.141,0.117 0.206,0.172 v 0.068 c 0.083,0.073 0.161,0.141 0.242,0.208 v 0.068 c 0.149,0.136 0.296,0.275 0.447,0.412 0.283,0.282 0.526,0.587 0.856,0.825 0.08,0.088 0.159,0.178 0.239,0.27 h 0.064 c 0.014,0.025 0.026,0.048 0.035,0.071 h 0.038 c 0.023,0.032 0.045,0.068 0.068,0.101 h 0.067 c 0.047,0.059 0.092,0.117 0.139,0.171 h 0.067 c 0.033,0.048 0.071,0.095 0.104,0.142 h 0.071 c 0.008,0.02 0.02,0.043 0.032,0.068 h 0.035 c 0.01,0.022 0.021,0.046 0.033,0.066 h 0.067 c 0.023,0.035 0.047,0.07 0.07,0.102 h 0.068 c 0.023,0.039 0.043,0.07 0.067,0.104 h 0.07 c 0.021,0.035 0.047,0.07 0.065,0.105 h 0.074 c 0.02,0.031 0.041,0.064 0.067,0.102 h 0.068 v 0.033 c 0.032,0.01 0.071,0.025 0.103,0.035 0.009,0.021 0.021,0.043 0.033,0.068 h 0.071 c 0.023,0.033 0.044,0.068 0.067,0.102 h 0.071 c 0.01,0.026 0.021,0.05 0.033,0.07 h 0.067 c 0.012,0.021 0.027,0.048 0.035,0.067 0.036,0.013 0.068,0.027 0.101,0.039 v 0.032 c 0.047,0.012 0.094,0.021 0.141,0.035 v 0.031 c 0.035,0.015 0.065,0.023 0.1,0.035 0.012,0.02 0.023,0.045 0.035,0.07 0.047,0.008 0.092,0.02 0.136,0.031 v 0.035 c 0.035,0.014 0.068,0.021 0.104,0.035 0.014,0.021 0.023,0.045 0.035,0.068 0.047,0.012 0.088,0.023 0.135,0.031 0.012,0.027 0.024,0.051 0.036,0.07 0.067,0.021 0.141,0.047 0.208,0.068 0.009,0.023 0.021,0.047 0.033,0.07 h 0.065 v 0.035 h 0.073 l 0.068,0.066 h 0.067 c 0.012,0.02 0.023,0.045 0.035,0.066 h 0.065 l 0.071,0.074 h 0.07 v 0.029 h 0.068 v 0.035 h 0.064 v 0.035 h 0.073 v 0.035 h 0.068 v 0.035 h 0.064 v 0.035 h 0.073 v 0.031 h 0.068 v 0.035 h 0.067 v 0.035 c 0.047,0.01 0.092,0.022 0.136,0.035 v 0.033 h 0.07 v 0.033 h 0.104 v 0.03 h 0.067 v 0.038 c 0.047,0.012 0.094,0.021 0.136,0.035 v 0.033 h 0.104 v 0.035 c 0.047,0.012 0.09,0.023 0.138,0.035 v 0.031 h 0.104 v 0.036 c 0.043,0.012 0.091,0.024 0.138,0.032 v 0.039 h 0.104 v 0.031 h 0.067 v 0.033 c 0.071,0.014 0.135,0.024 0.204,0.037 v 0.032 h 0.071 v 0.035 c 0.102,0.022 0.206,0.042 0.306,0.067 v 0.034 h 0.073 v 0.036 c 0.065,0.007 0.133,0.02 0.204,0.034 v 0.032 h 0.1 v 0.035 h 0.106 v 0.035 h 0.103 v 0.033 h 0.136 v 0.035 h 0.106 v 0.035 h 0.1 v 0.033 c 0.083,0.014 0.159,0.023 0.245,0.035 v 0.035 c 0.123,0.023 0.247,0.043 0.371,0.068 v 0.029 h 0.141 v 0.035 c 0.147,0.023 0.297,0.047 0.444,0.07 v 0.035 h 0.171 c 0.28,0.084 0.64,0.119 0.928,0.206 h 0.241 v 0.038 h 0.238 v 0.029 h 0.31 v 0.035 h 0.338 v 0.033 c 0.265,0.012 0.528,0.025 0.792,0.035 h 0.377 v 0.033 c 0.159,0.044 0.809,0 0.927,-0.033 h 0.716 v -0.035 h 0.447 c 0.265,-0.074 0.632,-0.062 0.892,-0.136 h 0.239 v -0.035 c 0.138,-0.013 0.276,-0.023 0.415,-0.032 v -0.035 c 0.111,-0.012 0.227,-0.023 0.341,-0.035 0.283,-0.088 0.622,-0.15 0.887,-0.238 0.141,-0.025 0.277,-0.045 0.418,-0.068 v -0.035 c 0.079,-0.012 0.159,-0.021 0.238,-0.035 v -0.01 h 0.104 V 41.445 H 59.01 V 41.41 h 0.104 v -0.033 c 0.149,-0.035 0.294,-0.07 0.447,-0.103 V 41.24 h 0.065 v -0.036 h 0.103 V 41.17 h 0.104 v -0.036 h 0.102 v -0.031 h 0.104 v -0.035 h 0.067 v -0.032 h 0.106 v -0.037 h 0.064 v -0.033 c 0.059,-0.012 0.116,-0.02 0.177,-0.031 v -0.039 h 0.098 v -0.032 h 0.071 v -0.036 h 0.103 v -0.031 c 0.047,-0.012 0.092,-0.023 0.139,-0.035 v -0.035 h 0.103 v -0.033 h 0.068 v -0.035 c 0.067,-0.021 0.138,-0.045 0.206,-0.068 v -0.033 h 0.1 v -0.033 c 0.071,-0.025 0.138,-0.049 0.206,-0.07 V 40.42 h 0.067 v -0.031 h 0.07 V 40.35 h 0.068 v -0.035 h 0.071 V 40.28 h 0.064 v -0.035 h 0.071 l 0.071,-0.064 h 0.067 c 0.012,-0.027 0.024,-0.047 0.033,-0.074 h 0.07 v -0.033 h 0.067 v -0.033 h 0.068 l 0.067,-0.066 h 0.07 c 0.012,-0.023 0.023,-0.047 0.036,-0.068 0.07,-0.025 0.139,-0.047 0.206,-0.072 0.012,-0.018 0.021,-0.045 0.036,-0.068 0.041,-0.008 0.088,-0.02 0.135,-0.035 0.012,-0.02 0.024,-0.043 0.033,-0.064 0.047,-0.015 0.088,-0.026 0.138,-0.035 0.009,-0.021 0.021,-0.047 0.035,-0.07 0.045,-0.012 0.092,-0.023 0.135,-0.031 0.012,-0.025 0.024,-0.051 0.033,-0.07 h 0.071 c 0.012,-0.021 0.023,-0.048 0.036,-0.066 h 0.066 v -0.035 c 0.033,-0.012 0.069,-0.025 0.106,-0.032 0.006,-0.026 0.021,-0.048 0.03,-0.073 h 0.071 c 0.015,-0.021 0.023,-0.045 0.033,-0.068 h 0.071 c 0.008,-0.021 0.023,-0.047 0.032,-0.068 h 0.071 v -0.035 c 0.033,-0.01 0.068,-0.023 0.1,-0.033 0.012,-0.025 0.027,-0.047 0.039,-0.068 h 0.065 c 0.023,-0.035 0.047,-0.068 0.073,-0.105 h 0.068 c 0.008,-0.021 0.02,-0.04 0.035,-0.064 h 0.065 l 0.035,-0.07 c 0.036,-0.009 0.067,-0.021 0.1,-0.035 0.024,-0.033 0.049,-0.064 0.071,-0.104 h 0.067 c 0.036,-0.047 0.071,-0.09 0.104,-0.137 h 0.067 c 0.023,-0.031 0.045,-0.068 0.071,-0.1 h 0.065 c 0.035,-0.047 0.074,-0.094 0.106,-0.142 h 0.068 c 0.047,-0.054 0.095,-0.112 0.138,-0.171 h 0.071 c 0.056,-0.068 0.111,-0.137 0.17,-0.205 h 0.068 c 0.088,-0.101 0.183,-0.203 0.273,-0.306 h 0.069 c 0.114,-0.13 0.226,-0.251 0.344,-0.379 0.259,-0.259 0.536,-0.481 0.753,-0.789 0.094,-0.076 0.183,-0.159 0.274,-0.237 v -0.07 c 0.067,-0.058 0.138,-0.115 0.206,-0.17 v -0.07 c 0.059,-0.043 0.112,-0.09 0.171,-0.135 v -0.072 c 0.047,-0.034 0.09,-0.07 0.135,-0.1 V 35.45 c 0.047,-0.03 0.094,-0.067 0.141,-0.098 v -0.07 c 0.036,-0.021 0.065,-0.046 0.1,-0.067 v -0.07 c 0.035,-0.023 0.067,-0.048 0.106,-0.067 v -0.071 c 0.032,-0.023 0.067,-0.047 0.1,-0.066 0.012,-0.034 0.023,-0.068 0.032,-0.103 0.024,-0.015 0.051,-0.023 0.071,-0.036 v -0.068 c 0.023,-0.009 0.047,-0.021 0.071,-0.033 v -0.066 c 0.033,-0.023 0.068,-0.051 0.104,-0.07 v -0.068 c 0.02,-0.013 0.043,-0.023 0.067,-0.035 0.011,-0.047 0.02,-0.082 0.032,-0.112 z m -15.7,6.066 H 52.702 V 40.385 H 52.257 V 40.35 H 51.913 V 40.315 H 51.637 V 40.28 H 51.398 V 40.245 H 51.16 C 50.838,40.15 50.441,40.104 50.129,40.009 h -0.171 v -0.035 c -0.092,-0.016 -0.183,-0.023 -0.274,-0.035 v -0.033 h -0.103 v -0.037 c -0.124,-0.021 -0.25,-0.047 -0.376,-0.068 v -0.035 h -0.139 v -0.035 h -0.1 V 39.7 H 48.864 V 39.667 H 48.76 v -0.035 h -0.103 v -0.035 h -0.105 v -0.035 h -0.1 v -0.031 c -0.071,-0.014 -0.139,-0.025 -0.207,-0.037 v -0.033 h -0.07 V 39.426 C 48.11,39.413 48.039,39.401 47.969,39.395 V 39.36 H 47.9 V 39.328 H 47.8 V 39.289 H 47.729 V 39.25 h -0.1 V 39.217 C 47.582,39.205 47.535,39.196 47.491,39.182 V 39.147 H 47.385 V 39.114 C 47.34,39.102 47.297,39.091 47.252,39.079 V 39.046 H 47.146 V 39.01 H 47.079 V 38.977 C 47.032,38.967 46.985,38.952 46.94,38.942 V 38.909 C 46.897,38.9 46.849,38.886 46.805,38.872 v -0.033 c -0.047,-0.007 -0.091,-0.02 -0.138,-0.031 V 38.773 H 46.596 V 38.738 H 46.528 V 38.703 H 46.463 V 38.67 H 46.392 V 38.639 H 46.325 V 38.6 H 46.257 V 38.569 H 46.186 V 38.534 H 46.12 l -0.071,-0.07 H 45.984 C 45.972,38.443 45.957,38.42 45.949,38.396 45.881,38.373 45.807,38.353 45.743,38.33 45.731,38.308 45.719,38.286 45.708,38.26 45.661,38.251 45.616,38.235 45.569,38.224 45.561,38.203 45.549,38.185 45.537,38.157 45.49,38.147 45.445,38.136 45.398,38.124 45.386,38.103 45.374,38.08 45.362,38.054 45.32,38.047 45.274,38.033 45.227,38.022 45.215,37.998 45.203,37.977 45.195,37.954 h -0.07 c -0.012,-0.023 -0.021,-0.046 -0.033,-0.071 h -0.073 c -0.006,-0.019 -0.018,-0.045 -0.03,-0.064 -0.047,-0.013 -0.094,-0.027 -0.135,-0.034 -0.012,-0.026 -0.027,-0.048 -0.039,-0.066 h -0.067 c -0.023,-0.037 -0.047,-0.071 -0.071,-0.104 h -0.068 c -0.008,-0.025 -0.02,-0.046 -0.032,-0.069 h -0.07 C 44.497,37.52 44.486,37.498 44.471,37.479 H 44.403 C 44.379,37.44 44.36,37.409 44.336,37.37 h -0.068 c -0.023,-0.031 -0.043,-0.063 -0.07,-0.096 h -0.065 c -0.023,-0.039 -0.047,-0.07 -0.071,-0.106 h -0.07 c -0.02,-0.034 -0.044,-0.071 -0.065,-0.101 H 43.856 C 43.848,37.045 43.836,37.02 43.824,36.995 H 43.788 C 43.777,36.977 43.765,36.951 43.755,36.927 H 43.684 C 43.652,36.883 43.617,36.838 43.581,36.791 H 43.513 C 43.489,36.759 43.466,36.722 43.442,36.69 H 43.41 C 43.398,36.667 43.386,36.642 43.375,36.616 H 43.307 C 43.248,36.55 43.193,36.483 43.136,36.417 h -0.07 C 42.954,36.29 42.839,36.161 42.724,36.034 H 42.66 c -0.084,-0.085 -0.165,-0.179 -0.244,-0.27 -0.104,-0.095 -0.206,-0.187 -0.312,-0.278 v -0.065 h -0.033 c -0.032,-0.043 -0.065,-0.095 -0.1,-0.138 -0.083,-0.067 -0.159,-0.138 -0.242,-0.205 V 35.007 C 41.65,34.941 41.57,34.872 41.491,34.802 v -0.068 c -0.059,-0.048 -0.112,-0.088 -0.174,-0.135 v -0.068 c -0.043,-0.035 -0.088,-0.07 -0.135,-0.106 V 34.35 C 41.135,34.317 41.091,34.282 41.04,34.248 V 34.174 C 41.011,34.156 40.976,34.132 40.944,34.11 V 34.04 C 40.908,34.019 40.873,33.995 40.84,33.976 v -0.071 c -0.036,-0.023 -0.071,-0.047 -0.106,-0.067 v -0.07 C 40.713,33.756 40.687,33.746 40.667,33.732 V 33.66 c -0.033,-0.02 -0.068,-0.043 -0.104,-0.062 v -0.071 c -0.024,-0.012 -0.044,-0.024 -0.067,-0.035 v -0.07 C 40.472,33.413 40.449,33.401 40.427,33.39 V 33.32 C 40.404,33.305 40.38,33.299 40.36,33.285 v -0.07 C 40.337,33.207 40.313,33.193 40.292,33.184 V 33.115 C 40.266,33.102 40.245,33.092 40.221,33.081 V 33.013 C 40.201,32.999 40.174,32.992 40.154,32.98 V 32.91 C 40.131,32.898 40.109,32.885 40.083,32.873 V 32.805 H 40.048 V 32.739 C 40.025,32.726 40.007,32.715 39.98,32.703 39.972,32.661 39.957,32.608 39.948,32.566 39.925,32.557 39.901,32.543 39.877,32.531 v -0.068 l -0.068,-0.065 v -0.074 c -0.023,-0.009 -0.047,-0.02 -0.07,-0.029 v -0.07 h -0.036 v -0.068 l -0.064,-0.07 v -0.066 c -0.024,-0.012 -0.047,-0.023 -0.071,-0.035 v -0.068 l -0.067,-0.066 v -0.07 H 39.465 V 31.714 H 39.432 V 31.648 H 39.397 V 31.574 H 39.365 V 31.508 H 39.33 v -0.066 h -0.035 v -0.068 h -0.033 v -0.072 h -0.035 c -0.012,-0.045 -0.02,-0.088 -0.036,-0.137 H 39.16 V 31.099 H 39.125 V 30.995 H 39.09 v -0.07 h -0.033 c -0.012,-0.045 -0.02,-0.09 -0.032,-0.132 H 38.989 V 30.68 H 38.954 C 38.942,30.633 38.931,30.591 38.919,30.541 H 38.886 V 30.437 H 38.851 V 30.371 H 38.816 V 30.27 H 38.784 V 30.2 H 38.749 V 30.1 H 38.714 V 30.03 H 38.678 C 38.657,29.927 38.634,29.825 38.61,29.722 H 38.578 V 29.65 H 38.543 V 29.547 H 38.51 v -0.1 H 38.474 V 29.342 H 38.436 V 29.205 H 38.407 V 29.101 H 38.368 V 29 H 38.336 V 28.899 H 38.301 C 38.28,28.772 38.256,28.646 38.233,28.52 H 38.201 C 38.189,28.428 38.178,28.336 38.165,28.244 H 38.13 V 28.109 C 38.047,27.867 38.001,27.535 37.924,27.285 V 27.079 H 37.891 V 26.875 H 37.859 V 26.67 H 37.82 V 26.395 C 37.732,26.077 37.724,25.663 37.718,25.26 H 52.84 V 40.416 z M 52.873,23.48 H 37.685 c 0.024,-0.309 0.047,-0.617 0.068,-0.926 h 0.036 v -0.309 h 0.031 v -0.24 h 0.039 v -0.239 c 0.062,-0.22 0.101,-0.509 0.167,-0.718 v -0.172 h 0.035 c 0.012,-0.105 0.023,-0.208 0.036,-0.311 h 0.033 c 0.012,-0.091 0.024,-0.182 0.035,-0.273 h 0.036 v -0.139 h 0.032 V 20.05 h 0.036 c 0.011,-0.082 0.021,-0.161 0.033,-0.242 h 0.035 v -0.137 h 0.032 v -0.104 h 0.039 v -0.102 h 0.029 v -0.1 h 0.038 v -0.106 h 0.036 v -0.103 h 0.033 v -0.101 h 0.035 c 0.021,-0.104 0.047,-0.205 0.067,-0.311 h 0.033 v -0.066 h 0.036 V 18.575 H 38.75 V 18.51 h 0.035 v -0.104 h 0.032 v -0.068 h 0.035 v -0.101 h 0.035 v -0.073 h 0.033 v -0.1 h 0.035 c 0.012,-0.047 0.023,-0.092 0.035,-0.139 h 0.036 v -0.103 h 0.032 v -0.066 h 0.033 c 0.025,-0.067 0.047,-0.139 0.07,-0.208 h 0.032 v -0.102 h 0.036 c 0.023,-0.069 0.047,-0.138 0.068,-0.207 h 0.035 v -0.067 h 0.035 v -0.07 h 0.032 v -0.067 h 0.035 v -0.07 l 0.068,-0.066 v -0.07 c 0.02,-0.011 0.047,-0.021 0.067,-0.033 V 16.73 h 0.035 V 16.659 H 39.64 V 16.59 l 0.064,-0.068 v -0.066 c 0.027,-0.013 0.051,-0.024 0.074,-0.036 0.021,-0.069 0.042,-0.139 0.067,-0.205 0.021,-0.012 0.047,-0.02 0.068,-0.034 0.012,-0.045 0.023,-0.094 0.035,-0.139 h 0.032 c 0.012,-0.033 0.027,-0.066 0.039,-0.102 0.018,-0.01 0.041,-0.022 0.064,-0.033 0.014,-0.045 0.026,-0.094 0.035,-0.139 0.024,-0.009 0.044,-0.022 0.071,-0.031 v -0.07 h 0.032 c 0.012,-0.033 0.024,-0.068 0.033,-0.102 0.023,-0.015 0.047,-0.023 0.071,-0.035 v -0.068 c 0.023,-0.009 0.043,-0.025 0.07,-0.035 v -0.069 c 0.02,-0.009 0.044,-0.022 0.065,-0.032 v -0.07 h 0.036 c 0.008,-0.033 0.023,-0.066 0.035,-0.102 0.023,-0.012 0.043,-0.023 0.067,-0.035 v -0.068 c 0.036,-0.023 0.068,-0.047 0.104,-0.07 V 14.91 c 0.024,-0.014 0.043,-0.023 0.067,-0.035 v -0.07 c 0.035,-0.021 0.071,-0.042 0.104,-0.068 v -0.068 c 0.02,-0.008 0.047,-0.02 0.071,-0.033 0.008,-0.032 0.02,-0.068 0.032,-0.101 0.047,-0.035 0.094,-0.072 0.139,-0.106 v -0.065 c 0.047,-0.036 0.088,-0.071 0.135,-0.104 v -0.071 c 0.047,-0.033 0.095,-0.066 0.138,-0.102 V 14.02 c 0.068,-0.058 0.135,-0.114 0.204,-0.173 v -0.07 c 0.091,-0.077 0.185,-0.156 0.273,-0.236 v -0.067 c 0.115,-0.105 0.229,-0.208 0.345,-0.312 0.206,-0.217 0.412,-0.433 0.618,-0.648 h 0.067 c 0.094,-0.104 0.182,-0.207 0.274,-0.312 h 0.071 c 0.043,-0.057 0.091,-0.113 0.136,-0.171 h 0.067 c 0.047,-0.057 0.092,-0.117 0.139,-0.17 h 0.071 c 0.032,-0.045 0.065,-0.092 0.103,-0.14 h 0.068 c 0.032,-0.048 0.067,-0.091 0.103,-0.136 h 0.065 c 0.027,-0.037 0.047,-0.068 0.07,-0.104 0.035,-0.009 0.071,-0.019 0.106,-0.032 0.009,-0.021 0.018,-0.047 0.03,-0.068 h 0.07 c 0.012,-0.021 0.023,-0.049 0.036,-0.068 h 0.068 c 0.021,-0.035 0.047,-0.07 0.067,-0.104 h 0.068 c 0.014,-0.023 0.023,-0.047 0.035,-0.069 0.035,-0.011 0.067,-0.022 0.103,-0.034 V 11.07 h 0.068 c 0.012,-0.023 0.023,-0.045 0.035,-0.068 h 0.067 c 0.012,-0.022 0.027,-0.047 0.039,-0.072 h 0.067 c 0.009,-0.022 0.021,-0.043 0.033,-0.066 h 0.065 c 0.014,-0.022 0.026,-0.047 0.038,-0.07 0.035,-0.012 0.068,-0.021 0.104,-0.032 v -0.036 c 0.043,-0.011 0.091,-0.023 0.138,-0.036 0.012,-0.021 0.023,-0.047 0.03,-0.067 0.047,-0.011 0.094,-0.02 0.141,-0.033 0.012,-0.022 0.021,-0.047 0.033,-0.07 0.047,-0.011 0.09,-0.025 0.141,-0.037 0.006,-0.02 0.018,-0.042 0.032,-0.067 0.068,-0.019 0.133,-0.042 0.206,-0.069 0.009,-0.022 0.021,-0.044 0.033,-0.066 h 0.07 l 0.065,-0.072 h 0.071 V 10.18 h 0.067 v -0.037 h 0.071 v -0.034 c 0.047,-0.011 0.092,-0.022 0.135,-0.033 0.012,-0.022 0.023,-0.046 0.033,-0.069 C 46.53,9.975 46.633,9.94 46.739,9.904 V 9.869 h 0.067 V 9.836 h 0.068 V 9.803 h 0.067 V 9.769 C 47.012,9.744 47.08,9.72 47.147,9.701 V 9.666 h 0.106 V 9.63 C 47.297,9.614 47.341,9.606 47.386,9.596 V 9.562 h 0.106 V 9.527 C 47.535,9.517 47.583,9.505 47.63,9.494 V 9.461 h 0.1 V 9.421 H 47.8 V 9.392 C 47.868,9.378 47.935,9.367 48.004,9.356 V 9.32 h 0.071 V 9.286 C 48.139,9.274 48.21,9.264 48.278,9.253 V 9.218 h 0.07 V 9.184 C 48.416,9.172 48.484,9.163 48.552,9.153 V 9.119 h 0.105 V 9.08 H 48.76 V 9.049 h 0.104 V 9.014 C 48.976,8.992 49.093,8.967 49.205,8.945 V 8.912 C 49.284,8.899 49.366,8.888 49.446,8.876 V 8.841 C 49.534,8.829 49.625,8.818 49.717,8.808 50.049,8.695 50.47,8.64 50.815,8.533 h 0.206 V 8.499 H 51.23 V 8.465 h 0.238 V 8.431 h 0.274 c 0.314,-0.093 0.73,-0.1 1.13,-0.105 V 23.48 z m 2.125,-0.548 c 0.012,-0.089 0.023,-0.181 0.035,-0.275 h 0.036 c 0.005,-0.092 0.02,-0.182 0.035,-0.273 h 0.032 V 22.28 h 0.033 c 0.012,-0.077 0.023,-0.156 0.035,-0.238 h 0.032 v -0.138 h 0.035 c 0.027,-0.113 0.047,-0.229 0.071,-0.343 h 0.033 v -0.102 h 0.032 v -0.104 h 0.039 v -0.102 h 0.032 v -0.105 h 0.033 v -0.135 h 0.038 V 20.91 h 0.033 v -0.105 h 0.035 v -0.103 h 0.032 v -0.104 h 0.035 v -0.067 h 0.033 c 0.026,-0.102 0.047,-0.203 0.073,-0.307 h 0.033 v -0.105 h 0.032 v -0.067 h 0.035 c 0.012,-0.068 0.024,-0.138 0.033,-0.204 h 0.036 v -0.071 h 0.035 v -0.104 h 0.032 v -0.065 h 0.036 c 0.012,-0.071 0.023,-0.14 0.035,-0.205 h 0.033 v -0.07 h 0.036 c 0.035,-0.113 0.067,-0.227 0.102,-0.344 h 0.039 c 0.006,-0.043 0.02,-0.092 0.029,-0.135 h 0.035 v -0.105 h 0.032 v -0.066 h 0.035 c 0.012,-0.049 0.023,-0.095 0.035,-0.139 h 0.033 v -0.102 h 0.032 v -0.068 h 0.039 c 0.008,-0.046 0.024,-0.092 0.032,-0.136 h 0.036 c 0.012,-0.05 0.023,-0.093 0.035,-0.139 h 0.036 c 0.009,-0.048 0.018,-0.093 0.033,-0.136 h 0.035 v -0.072 h 0.032 v -0.067 h 0.039 v -0.066 h 0.032 v -0.067 h 0.036 V 17.62 h 0.033 v -0.069 h 0.035 v -0.067 h 0.036 v -0.068 h 0.032 v -0.069 l 0.068,-0.064 v -0.072 c 0.024,-0.012 0.047,-0.025 0.071,-0.034 v -0.07 h 0.036 c 0.008,-0.046 0.02,-0.087 0.032,-0.138 0.021,-0.01 0.045,-0.021 0.068,-0.032 0.012,-0.046 0.023,-0.091 0.035,-0.138 0.02,-0.012 0.043,-0.022 0.067,-0.035 v -0.067 h 0.035 v -0.07 h 0.035 c 0.009,-0.034 0.021,-0.068 0.033,-0.103 0.023,-0.011 0.047,-0.021 0.067,-0.034 0.009,-0.045 0.023,-0.093 0.036,-0.138 0.023,-0.01 0.044,-0.021 0.068,-0.033 V 16.25 c 0.035,-0.021 0.07,-0.045 0.102,-0.067 v -0.068 c 0.023,-0.012 0.047,-0.025 0.068,-0.033 v -0.07 c 0.026,-0.01 0.043,-0.021 0.067,-0.033 v -0.068 h 0.035 c 0.015,-0.035 0.023,-0.068 0.035,-0.104 0.024,-0.011 0.047,-0.023 0.071,-0.034 v -0.068 c 0.021,-0.013 0.044,-0.021 0.062,-0.033 0.018,-0.033 0.026,-0.068 0.038,-0.102 0.035,-0.023 0.071,-0.049 0.104,-0.071 v -0.067 c 0.02,-0.013 0.047,-0.023 0.067,-0.035 v -0.066 c 0.036,-0.025 0.069,-0.049 0.104,-0.07 v -0.066 c 0.035,-0.025 0.071,-0.047 0.106,-0.07 v -0.068 c 0.043,-0.036 0.088,-0.07 0.132,-0.104 0.015,-0.033 0.027,-0.068 0.039,-0.101 0.02,-0.013 0.043,-0.026 0.067,-0.038 v -0.068 c 0.023,-0.01 0.045,-0.021 0.068,-0.032 0.02,-0.036 0.047,-0.069 0.073,-0.102 h 0.03 v -0.068 c 0.059,-0.047 0.118,-0.093 0.17,-0.139 v -0.069 c 0.068,-0.054 0.139,-0.115 0.209,-0.172 v -0.068 c 0.112,-0.104 0.224,-0.207 0.342,-0.311 v -0.066 c 0.07,-0.056 0.136,-0.114 0.206,-0.17 0.112,-0.126 0.226,-0.253 0.341,-0.379 h 0.067 c 0.104,-0.113 0.206,-0.228 0.31,-0.343 h 0.071 c 0.043,-0.058 0.091,-0.114 0.135,-0.17 H 60.9 c 0.032,-0.046 0.067,-0.094 0.097,-0.136 h 0.07 c 0.035,-0.047 0.071,-0.095 0.106,-0.139 h 0.068 c 0.02,-0.036 0.043,-0.068 0.067,-0.102 h 0.064 c 0.027,-0.038 0.053,-0.071 0.071,-0.104 h 0.071 c 0.021,-0.036 0.047,-0.07 0.068,-0.105 h 0.067 v -0.033 c 0.035,-0.01 0.071,-0.021 0.104,-0.035 0.014,-0.021 0.023,-0.043 0.035,-0.066 h 0.067 c 0.027,-0.036 0.047,-0.068 0.068,-0.106 h 0.07 c 0.012,-0.019 0.024,-0.045 0.036,-0.065 0.047,-0.013 0.091,-0.023 0.136,-0.036 0.011,-0.021 0.023,-0.048 0.035,-0.067 h 0.067 c 0.012,-0.023 0.021,-0.045 0.035,-0.068 h 0.065 c 0.015,-0.023 0.027,-0.045 0.036,-0.068 0.047,-0.012 0.094,-0.024 0.141,-0.036 v -0.032 c 0.035,-0.015 0.065,-0.021 0.104,-0.035 0.008,-0.021 0.02,-0.047 0.029,-0.066 h 0.073 v -0.035 h 0.064 c 0.012,-0.024 0.024,-0.044 0.036,-0.07 0.068,-0.021 0.139,-0.045 0.206,-0.068 0.009,-0.021 0.021,-0.045 0.035,-0.068 h 0.068 V 11.07 h 0.067 c 0.012,-0.023 0.024,-0.045 0.033,-0.068 0.071,-0.022 0.138,-0.047 0.206,-0.072 0.014,-0.022 0.026,-0.043 0.036,-0.066 h 0.067 V 10.83 h 0.071 l 0.068,-0.067 h 0.067 c 0.012,-0.023 0.023,-0.047 0.035,-0.072 h 0.068 l 0.067,-0.067 h 0.07 v -0.033 h 0.065 v -0.036 h 0.074 v -0.034 h 0.07 v -0.037 h 0.065 v -0.033 c 0.071,-0.023 0.135,-0.045 0.206,-0.067 v -0.037 h 0.103 v -0.034 h 0.068 v -0.032 c 0.047,-0.011 0.09,-0.025 0.138,-0.036 V 10.21 h 0.1 v -0.03 c 0.05,-0.013 0.094,-0.023 0.139,-0.037 v -0.034 h 0.103 v -0.033 c 0.047,-0.012 0.092,-0.022 0.139,-0.034 V 10.007 H 65.39 V 9.975 h 0.067 V 9.939 C 65.525,9.927 65.593,9.914 65.663,9.904 V 9.869 h 0.068 V 9.836 C 65.832,9.814 65.934,9.791 66.04,9.769 V 9.733 h 0.1 V 9.701 h 0.104 V 9.666 h 0.1 V 9.63 H 66.45 V 9.596 h 0.103 V 9.562 h 0.1 V 9.527 h 0.141 V 9.495 h 0.1 V 9.461 c 0.081,-0.015 0.159,-0.026 0.242,-0.04 V 9.392 C 67.23,9.378 67.319,9.367 67.41,9.356 V 9.32 C 67.5,9.312 67.592,9.299 67.683,9.286 V 9.253 h 0.174 V 9.218 h 0.135 V 9.184 h 0.171 V 9.153 h 0.206 V 9.119 H 68.54 V 9.08 h 0.206 V 9.049 h 0.241 c 0.23,-0.068 0.574,-0.102 0.854,-0.105 -0.01,4.846 -0.021,9.688 -0.036,14.536 H 54.859 c 0.003,-0.205 0.082,-0.391 0.139,-0.548 z m 12.894,9.015 v 0.07 h -0.036 v 0.066 l -0.071,0.07 v 0.068 c -0.023,0.012 -0.044,0.023 -0.07,0.035 -0.018,0.064 -0.045,0.139 -0.065,0.204 -0.023,0.011 -0.047,0.021 -0.07,0.036 -0.016,0.044 -0.024,0.09 -0.033,0.135 -0.026,0.014 -0.047,0.027 -0.071,0.034 -0.008,0.047 -0.02,0.095 -0.035,0.138 h -0.032 c -0.012,0.035 -0.024,0.068 -0.033,0.105 -0.024,0.012 -0.05,0.021 -0.071,0.033 -0.012,0.047 -0.024,0.09 -0.036,0.137 h -0.035 c -0.006,0.034 -0.02,0.068 -0.032,0.104 -0.024,0.009 -0.047,0.023 -0.068,0.031 v 0.07 h -0.036 c -0.012,0.035 -0.02,0.068 -0.035,0.104 -0.021,0.012 -0.042,0.023 -0.068,0.032 v 0.07 c -0.035,0.023 -0.068,0.044 -0.104,0.07 v 0.065 c -0.02,0.014 -0.043,0.024 -0.067,0.033 v 0.069 c -0.033,0.024 -0.068,0.049 -0.1,0.071 v 0.066 c -0.027,0.013 -0.047,0.021 -0.074,0.036 v 0.071 c -0.032,0.02 -0.067,0.043 -0.1,0.064 v 0.07 c -0.047,0.033 -0.091,0.064 -0.138,0.1 v 0.072 c -0.045,0.035 -0.092,0.068 -0.135,0.099 v 0.071 c -0.045,0.035 -0.094,0.07 -0.139,0.104 v 0.07 c -0.053,0.043 -0.114,0.091 -0.171,0.135 v 0.069 c -0.079,0.068 -0.159,0.135 -0.238,0.204 v 0.067 c -0.153,0.142 -0.3,0.274 -0.447,0.415 v 0.065 c -0.033,0.026 -0.068,0.048 -0.104,0.071 -0.071,0.08 -0.138,0.158 -0.206,0.24 h -0.071 c -0.077,0.088 -0.159,0.181 -0.238,0.274 -0.045,0.032 -0.092,0.067 -0.136,0.104 -0.012,0.023 -0.023,0.043 -0.035,0.063 h -0.071 c -0.064,0.082 -0.135,0.16 -0.2,0.241 h -0.07 c -0.059,0.07 -0.115,0.138 -0.171,0.207 h -0.071 c -0.035,0.047 -0.068,0.092 -0.104,0.136 h -0.067 c -0.035,0.051 -0.071,0.094 -0.104,0.141 h -0.071 c -0.023,0.029 -0.044,0.066 -0.067,0.101 -0.036,0.011 -0.069,0.022 -0.104,0.036 -0.008,0.021 -0.02,0.043 -0.031,0.07 h -0.065 c -0.027,0.032 -0.05,0.064 -0.074,0.096 h -0.067 c -0.015,0.027 -0.023,0.047 -0.035,0.07 h -0.068 c -0.024,0.039 -0.05,0.071 -0.067,0.106 h -0.07 c -0.009,0.023 -0.021,0.044 -0.033,0.069 -0.035,0.01 -0.071,0.018 -0.103,0.033 v 0.034 h -0.068 c -0.012,0.021 -0.023,0.044 -0.038,0.068 h -0.068 c -0.012,0.019 -0.021,0.042 -0.03,0.069 h -0.07 c -0.012,0.02 -0.024,0.046 -0.036,0.064 h -0.07 c -0.008,0.025 -0.021,0.048 -0.036,0.071 h -0.065 c -0.014,0.023 -0.023,0.044 -0.035,0.068 -0.043,0.011 -0.091,0.025 -0.138,0.032 -0.009,0.026 -0.021,0.05 -0.033,0.07 -0.047,0.013 -0.09,0.023 -0.138,0.033 -0.012,0.028 -0.021,0.047 -0.035,0.067 -0.068,0.027 -0.136,0.048 -0.204,0.069 -0.95,0.6 -2.045,1.034 -3.188,1.439 h -0.139 v 0.035 h -0.103 v 0.035 h -0.104 v 0.033 c -0.124,0.025 -0.25,0.047 -0.377,0.072 v 0.033 h -0.138 v 0.035 h -0.168 v 0.035 H 57.36 v 0.031 h -0.135 v 0.033 h -0.174 v 0.033 H 56.88 v 0.037 h -0.17 v 0.037 c -0.138,0.008 -0.277,0.02 -0.409,0.029 -0.469,0.141 -1.119,0.152 -1.649,0.207 V 25.26 h 15.12 c -0.027,0.37 -0.051,0.734 -0.07,1.099 h -0.033 v 0.276 h -0.038 c -0.01,0.146 -0.021,0.296 -0.033,0.444 h -0.035 v 0.175 h -0.032 v 0.203 H 69.5 v 0.174 h -0.033 v 0.134 h -0.036 v 0.173 h -0.035 c -0.008,0.095 -0.023,0.181 -0.036,0.271 h -0.032 v 0.14 h -0.035 v 0.134 H 69.26 v 0.141 h -0.036 v 0.139 h -0.035 v 0.102 H 69.157 V 29 c -0.376,1.029 -0.723,2.09 -1.265,2.947 z m 150.491,4.668 c -0.486,-0.482 -1.074,-0.723 -1.764,-0.723 -0.692,0 -1.277,0.24 -1.764,0.723 -0.488,0.492 -0.736,1.073 -0.736,1.762 0,0.691 0.248,1.287 0.73,1.772 0.486,0.485 1.071,0.737 1.77,0.737 0.689,0 1.277,-0.252 1.764,-0.737 0.485,-0.485 0.732,-1.081 0.732,-1.772 0,-0.689 -0.247,-1.273 -0.732,-1.762 z m -0.242,3.299 c -0.42,0.415 -0.931,0.626 -1.525,0.626 -0.6,0 -1.106,-0.211 -1.525,-0.626 -0.414,-0.424 -0.623,-0.938 -0.623,-1.533 0,-0.595 0.209,-1.094 0.627,-1.514 0.421,-0.422 0.932,-0.633 1.521,-0.633 0.595,0 1.102,0.211 1.525,0.633 0.412,0.42 0.621,0.918 0.621,1.514 0,0.596 -0.209,1.109 -0.621,1.533 z m -0.391,-2.119 c 0,-0.352 -0.142,-0.578 -0.424,-0.695 -0.163,-0.063 -0.412,-0.103 -0.758,-0.103 h -0.965 v 2.753 h 0.488 v -1.078 h 0.383 c 0.259,0 0.439,0.027 0.535,0.088 0.174,0.102 0.266,0.309 0.266,0.627 V 39.6 l 0.01,0.088 c 0.002,0.015 0.002,0.023 0.005,0.038 0,0.003 0.007,0.015 0.015,0.024 h 0.445 l -0.016,-0.033 c -0.008,-0.026 -0.018,-0.07 -0.02,-0.148 -0.01,-0.067 -0.013,-0.138 -0.013,-0.201 v -0.2 c 0,-0.142 -0.047,-0.278 -0.146,-0.428 -0.099,-0.142 -0.251,-0.235 -0.469,-0.267 0.171,-0.03 0.3,-0.07 0.394,-0.132 0.181,-0.121 0.27,-0.296 0.27,-0.546 z m -0.758,0.465 c -0.103,0.048 -0.253,0.066 -0.461,0.066 h -0.439 v -0.984 h 0.418 c 0.271,0 0.469,0.035 0.588,0.1 0.128,0.068 0.188,0.199 0.188,0.398 -0.001,0.209 -0.102,0.348 -0.294,0.42 z"
         id="path6"
         style="fill:#ffffff" /></g></g><g
     transform="matrix(1.2536402,0,0,1.2536402,-150.21727,-12.125994)"
     id="Cincom_Mantis"
     style="fill:#ffffff;filter:url(#filter3115)"><path
       d="m 125.699,13.01 h 2.969 l 7.74,17.82 7.74,-17.82 h 2.82 v 21.24 h -1.98 V 15.53 h -0.061 l -8.1,18.72 h -0.869 l -8.221,-18.72 h -0.061 v 18.72 h -1.979 V 13.01 z"
       id="path23"
       style="fill:#ffffff" /><path
       d="m 158.788,13.01 h 2.04 l 8.94,21.24 h -2.221 l -2.31,-5.64 h -11.25 l -2.4,5.64 h -2.069 l 9.27,-21.24 z m 0.93,2.16 -4.949,11.64 h 9.75 l -4.801,-11.64 z"
       id="path25"
       style="fill:#ffffff" /><path
       d="m 172.528,13.01 h 2.55 l 12.93,18.6 h 0.061 v -18.6 h 1.979 v 21.24 h -2.55 l -12.93,-18.6 h -0.061 v 18.6 h -1.979 V 13.01 z"
       id="path27"
       style="fill:#ffffff" /><path
       d="m 200.278,14.81 h -7.26 v -1.8 h 16.5 v 1.8 h -7.261 v 19.44 h -1.979 V 14.81 z"
       id="path29"
       style="fill:#ffffff" /><path
       d="m 212.488,13.01 h 1.979 v 21.24 h -1.979 V 13.01 z"
       id="path31"
       style="fill:#ffffff" /><path
       d="m 220.558,30.32 c 0.52,0.9 1.194,1.57 2.024,2.01 0.83,0.44 1.774,0.66 2.835,0.66 0.66,0 1.28,-0.1 1.86,-0.301 0.58,-0.199 1.085,-0.479 1.515,-0.84 0.43,-0.359 0.77,-0.795 1.021,-1.305 0.249,-0.51 0.375,-1.084 0.375,-1.725 0,-0.74 -0.155,-1.35 -0.466,-1.83 -0.31,-0.48 -0.725,-0.875 -1.244,-1.185 -0.521,-0.31 -1.105,-0.575 -1.756,-0.795 -0.649,-0.22 -1.319,-0.439 -2.01,-0.66 -0.689,-0.22 -1.36,-0.47 -2.01,-0.75 -0.65,-0.28 -1.235,-0.645 -1.755,-1.095 -0.521,-0.45 -0.936,-1.015 -1.245,-1.695 -0.311,-0.68 -0.465,-1.52 -0.465,-2.52 0,-0.94 0.185,-1.775 0.555,-2.505 0.37,-0.73 0.87,-1.34 1.5,-1.83 0.63,-0.49 1.354,-0.86 2.175,-1.11 0.821,-0.25 1.681,-0.375 2.58,-0.375 1.16,0 2.235,0.205 3.226,0.615 0.989,0.41 1.845,1.095 2.564,2.055 l -1.71,1.23 c -0.5,-0.7 -1.085,-1.225 -1.755,-1.575 -0.67,-0.35 -1.465,-0.525 -2.385,-0.525 -0.641,0 -1.25,0.085 -1.83,0.255 -0.58,0.17 -1.085,0.42 -1.515,0.75 -0.431,0.33 -0.775,0.746 -1.035,1.245 -0.261,0.5 -0.391,1.09 -0.391,1.77 0,1.06 0.271,1.875 0.811,2.445 0.54,0.57 1.215,1.02 2.024,1.35 0.811,0.33 1.69,0.62 2.641,0.87 0.949,0.25 1.83,0.585 2.64,1.005 0.811,0.42 1.485,1.005 2.025,1.755 0.54,0.75 0.81,1.785 0.81,3.105 0,0.959 -0.18,1.811 -0.54,2.55 -0.359,0.74 -0.845,1.364 -1.455,1.875 -0.61,0.51 -1.315,0.896 -2.114,1.155 -0.801,0.26 -1.631,0.39 -2.49,0.39 -1.4,0 -2.69,-0.245 -3.87,-0.735 -1.181,-0.49 -2.19,-1.314 -3.03,-2.475 l 1.89,-1.259 z"
       id="path33"
       style="fill:#ffffff" /><path
       d="m 233.947,18.068 c 0,-0.898 0.172,-1.74 0.517,-2.527 0.344,-0.787 0.811,-1.475 1.399,-2.064 0.588,-0.588 1.276,-1.055 2.063,-1.399 0.787,-0.344 1.629,-0.516 2.527,-0.516 0.897,0 1.74,0.172 2.527,0.516 0.787,0.344 1.475,0.811 2.063,1.399 0.589,0.589 1.056,1.277 1.399,2.064 0.343,0.787 0.516,1.629 0.516,2.527 0,0.898 -0.172,1.74 -0.516,2.527 -0.344,0.787 -0.811,1.475 -1.399,2.064 -0.588,0.589 -1.276,1.055 -2.063,1.399 -0.787,0.344 -1.63,0.516 -2.527,0.516 -0.898,0 -1.74,-0.172 -2.527,-0.516 -0.787,-0.344 -1.476,-0.81 -2.063,-1.399 -0.589,-0.589 -1.056,-1.277 -1.399,-2.064 -0.345,-0.786 -0.517,-1.629 -0.517,-2.527 z m 0.946,0 c 0,0.77 0.146,1.493 0.437,2.169 0.292,0.676 0.688,1.265 1.189,1.766 0.501,0.501 1.09,0.898 1.767,1.189 0.676,0.292 1.399,0.437 2.169,0.437 0.77,0 1.492,-0.146 2.169,-0.437 0.676,-0.292 1.265,-0.688 1.767,-1.189 0.501,-0.501 0.897,-1.09 1.188,-1.766 0.292,-0.676 0.438,-1.399 0.438,-2.169 0,-0.77 -0.146,-1.493 -0.438,-2.169 -0.291,-0.676 -0.688,-1.265 -1.188,-1.767 -0.502,-0.501 -1.091,-0.897 -1.767,-1.189 -0.677,-0.292 -1.399,-0.438 -2.169,-0.438 -0.77,0 -1.493,0.146 -2.169,0.438 -0.677,0.292 -1.266,0.688 -1.767,1.189 -0.501,0.502 -0.897,1.091 -1.189,1.767 -0.292,0.677 -0.437,1.4 -0.437,2.169 z m 4.144,3.725 h -0.944 V 14.29 h 2.886 c 0.852,0 1.458,0.178 1.819,0.533 0.361,0.356 0.542,0.872 0.542,1.548 0,0.35 -0.05,0.647 -0.148,0.892 -0.1,0.245 -0.236,0.452 -0.411,0.621 -0.175,0.169 -0.376,0.303 -0.604,0.402 -0.228,0.099 -0.47,0.172 -0.726,0.218 l 2.238,3.288 h -1.066 l -2.239,-3.288 h -1.347 v 3.289 z m 0,-4.127 h 1.207 c 0.256,0 0.513,-0.009 0.77,-0.026 0.257,-0.017 0.486,-0.07 0.69,-0.157 0.204,-0.087 0.37,-0.216 0.499,-0.385 0.128,-0.169 0.192,-0.411 0.192,-0.726 0,-0.245 -0.05,-0.446 -0.148,-0.603 -0.1,-0.158 -0.228,-0.283 -0.385,-0.376 -0.158,-0.093 -0.339,-0.16 -0.543,-0.201 -0.204,-0.041 -0.405,-0.062 -0.603,-0.062 h -1.68 v 2.536 z"
       id="path35"
       style="fill:#ffffff" /></g></svg>